<?xml version="1.0" encoding="UTF-8"?>
<svg xmlns="http://www.w3.org/2000/svg" width="2048" height="779" viewBox="0 0 2048 779">
  <path d="M 643 460 L 643 464 L 645 468 L 645 474 L 646 475 L 646 502 L 645 503 L 645 509 L 643 512 L 642 520 L 633 540 L 630 543 L 624 553 L 622 554 L 611 567 L 688 645 L 690 645 L 700 635 L 702 631 L 707 626 L 717 605 L 717 602 L 720 594 L 720 587 L 721 586 L 721 566 L 720 565 L 719 553 L 717 550 L 717 547 L 714 539 L 702 519 Z" fill="#FFFFFF" />
  <path d="M 627 449 L 624 449 L 620 452 L 612 454 L 601 455 L 589 452 L 587 450 L 577 446 L 504 519 L 495 533 L 495 535 L 492 539 L 491 544 L 489 547 L 488 554 L 486 558 L 486 566 L 485 567 L 486 593 L 488 597 L 489 605 L 491 607 L 492 612 L 498 622 L 498 624 L 500 625 L 501 628 L 507 636 L 516 645 L 518 645 L 612 551 L 623 537 L 632 518 L 633 511 L 635 507 L 635 501 L 636 500 L 636 477 L 635 476 L 635 470 L 633 466 L 632 459 L 630 457 L 629 452 Z" fill="#FFFFFF" />
  <path d="M 552 451 L 534 454 L 533 455 L 515 455 L 509 453 L 498 452 L 495 450 L 492 450 L 484 447 L 470 440 L 459 432 L 445 419 L 367 498 L 377 508 L 386 515 L 409 526 L 417 527 L 422 529 L 433 529 L 434 530 L 451 529 L 456 527 L 464 526 L 478 520 L 496 508 Z" fill="#FFFFFF" />
  <path d="M 642 388 L 645 392 L 648 401 L 649 412 L 648 413 L 648 420 L 646 423 L 645 428 L 640 435 L 640 437 L 714 511 L 728 520 L 743 526 L 751 527 L 755 529 L 767 529 L 768 530 L 784 529 L 789 527 L 797 526 L 817 517 L 822 514 L 823 512 L 826 511 L 839 498 L 741 399 L 732 392 L 730 392 L 723 387 L 703 380 L 698 380 L 691 378 L 674 378 L 673 379 L 662 380 L 649 384 Z" fill="#FFFFFF" />
  <path d="M 598 377 L 589 380 L 584 383 L 577 390 L 573 397 L 573 400 L 571 404 L 571 417 L 577 430 L 587 439 L 597 443 L 611 443 L 623 438 L 632 429 L 636 421 L 637 405 L 635 397 L 632 391 L 624 383 L 619 380 L 610 377 Z" fill="#FFFFFF" />
  <path d="M 837 322 L 817 305 L 804 298 L 796 295 L 793 295 L 790 293 L 776 292 L 775 291 L 759 291 L 758 292 L 745 293 L 723 302 L 706 314 L 652 368 L 652 370 L 668 366 L 692 366 L 693 367 L 699 367 L 711 370 L 717 373 L 722 374 L 724 376 L 726 376 L 738 383 L 739 385 L 746 389 L 748 392 L 759 401 Z" fill="#FFFFFF" />
  <path d="M 371 320 L 370 324 L 468 422 L 485 433 L 500 439 L 509 440 L 514 442 L 538 442 L 543 440 L 552 439 L 566 433 L 566 431 L 564 429 L 561 422 L 560 404 L 564 391 L 569 383 L 499 313 L 487 304 L 485 304 L 478 299 L 473 298 L 467 295 L 464 295 L 461 293 L 448 292 L 447 291 L 422 292 L 407 296 L 394 302 L 386 307 Z" fill="#FFFFFF" />
  <path d="M 692 175 L 594 272 L 583 288 L 577 301 L 576 307 L 574 311 L 573 328 L 572 329 L 574 352 L 580 370 L 582 372 L 593 367 L 610 366 L 623 370 L 629 374 L 632 374 L 703 303 L 711 292 L 711 290 L 717 280 L 722 265 L 722 260 L 723 259 L 723 230 L 719 214 L 713 201 L 706 190 Z" fill="#FFFFFF" />
  <path d="M 514 175 L 498 193 L 491 205 L 491 207 L 488 212 L 488 215 L 486 218 L 485 226 L 483 231 L 483 258 L 485 263 L 486 271 L 492 286 L 503 303 L 561 361 L 560 353 L 558 349 L 558 340 L 557 339 L 557 325 L 558 324 L 558 316 L 560 311 L 561 303 L 563 300 L 567 287 L 576 272 L 578 271 L 581 266 L 584 264 L 593 253 Z" fill="#FFFFFF" />
  <text id="t1" x="942" y="401" fill="#FFFFFF" font-family="Arial, Helvetica, sans-serif" font-size="272" font-weight="700">HSZC</text>
  <text id="t2" x="942" y="541" fill="#FFFFFF" font-family="Arial, Helvetica, sans-serif" font-size="85" font-weight="700">HÓDMEZŐVÁSÁRHELYI</text>
  <text id="t3" x="942" y="618" fill="#FFFFFF" font-family="Arial, Helvetica, sans-serif" font-size="62" font-weight="400">Szakképzési Centrum</text>
</svg>